# xmcd CD database file
#
# Track frame offsets:
#	150
#	24578
#	60796
#	69560
#	103218
#	118829
#	132833
#	153961
#	167449
#
# Disc length: 2300 seconds
#
# Revision: 1
# Processed by: cddbd v1.5.2PL0 Copyright (c) Steve Scherf et al.
# Submitted via: CDex 1.70beta2
#
DISCID=6e08fa09
DTITLE=Marc Ducret - Tower Vol.4
DYEAR=2012
DGENRE=Jazz
TTITLE0=From A Distant Land
TTITLE1=Sur l'Electricité
TTITLE2=Sisters
TTITLE3=Real Thing #2
TTITLE4=Real Thing #1
TTITLE5=Ada
TTITLE6=A Distant Land
TTITLE7=Sybil Vane
TTITLE8=Electricity
EXTD=YEAR: 2012
EXTT0=
EXTT1=
EXTT2=
EXTT3=
EXTT4=
EXTT5=
EXTT6=
EXTT7=
EXTT8=
PLAYORDER=
